<?xml version="1.0" encoding="UTF-8" standalone="no"?>
<!DOCTYPE svg PUBLIC "-//W3C//DTD SVG 1.1//EN"
 "http://www.w3.org/Graphics/SVG/1.1/DTD/svg11.dtd">
<!-- Generated by graphviz version 13.1.2 (20250809.0930)
 -->
<!-- Title: G Pages: 1 -->
<svg width="2591pt" height="1257pt"
 viewBox="0.00 0.00 2591.00 1257.00" xmlns="http://www.w3.org/2000/svg" xmlns:xlink="http://www.w3.org/1999/xlink">
<g id="graph0" class="graph" transform="scale(1 1) rotate(0) translate(4 1253)">
<title>G</title>
<polygon fill="white" stroke="none" points="-4,4 -4,-1253 2587,-1253 2587,4 -4,4"/>
<g id="clust1" class="cluster">
<title>cluster_Two&#45;View Estimator</title>
<polygon fill="white" stroke="black" points="1637,-898.5 1637,-1205 2327,-1205 2327,-898.5 1637,-898.5"/>
<text xml:space="preserve" text-anchor="middle" x="1982" y="-1187.7" font-family="Veranda" font-size="14.00">Two&#45;View Estimator</text>
</g>
<g id="clust2" class="cluster">
<title>cluster_Dense Reconstruction</title>
<polygon fill="white" stroke="black" points="1194,-8 1194,-157.25 1442,-157.25 1442,-8 1194,-8"/>
<text xml:space="preserve" text-anchor="middle" x="1318" y="-139.95" font-family="Veranda" font-size="14.00">Dense Reconstruction</text>
</g>
<g id="clust3" class="cluster">
<title>cluster_Sparse Reconstruction</title>
<polygon fill="white" stroke="black" points="945,-165.25 945,-890.5 1409,-890.5 1409,-165.25 945,-165.25"/>
<text xml:space="preserve" text-anchor="middle" x="1177" y="-873.2" font-family="Veranda" font-size="14.00">Sparse Reconstruction</text>
</g>
<g id="clust4" class="cluster">
<title>cluster_Cluster Optimizer</title>
<polygon fill="white" stroke="black" points="8,-1055.75 8,-1205 731,-1205 731,-1055.75 8,-1055.75"/>
<text xml:space="preserve" text-anchor="middle" x="369.5" y="-1187.7" font-family="Veranda" font-size="14.00">Cluster Optimizer</text>
</g>
<g id="clust5" class="cluster">
<title>cluster_Preprocessing</title>
<polygon fill="white" stroke="black" points="779,-813.25 779,-975.75 937,-975.75 937,-813.25 779,-813.25"/>
<text xml:space="preserve" text-anchor="middle" x="858" y="-958.45" font-family="Veranda" font-size="14.00">Preprocessing</text>
</g>
<g id="clust6" class="cluster">
<title>cluster_Loader and Retriever</title>
<polygon fill="white" stroke="black" points="739,-983.75 739,-1205 1629,-1205 1629,-983.75 739,-983.75"/>
<text xml:space="preserve" text-anchor="middle" x="1184" y="-1187.7" font-family="Veranda" font-size="14.00">Loader and Retriever</text>
</g>
<g id="clust7" class="cluster">
<title>cluster_Cluster Optimization</title>
<polygon fill="white" stroke="black" points="565,-813.25 565,-975.75 771,-975.75 771,-813.25 565,-813.25"/>
<text xml:space="preserve" text-anchor="middle" x="668" y="-958.45" font-family="Veranda" font-size="14.00">Cluster Optimization</text>
</g>
<!-- AnySplat -->
<g id="node1" class="node">
<title>AnySplat</title>
<path fill="lightskyblue" stroke="black" d="M402.25,-1171.75C402.25,-1171.75 345.75,-1171.75 345.75,-1171.75 339.75,-1171.75 333.75,-1165.75 333.75,-1159.75 333.75,-1159.75 333.75,-1147.75 333.75,-1147.75 333.75,-1141.75 339.75,-1135.75 345.75,-1135.75 345.75,-1135.75 402.25,-1135.75 402.25,-1135.75 408.25,-1135.75 414.25,-1141.75 414.25,-1147.75 414.25,-1147.75 414.25,-1159.75 414.25,-1159.75 414.25,-1165.75 408.25,-1171.75 402.25,-1171.75"/>
<text xml:space="preserve" text-anchor="middle" x="374" y="-1149.08" font-family="Times,serif" font-size="14.00">AnySplat</text>
</g>
<!-- Gaussian Splats -->
<g id="node2" class="node">
<title>Gaussian Splats</title>
<path fill="gainsboro" stroke="black" d="M489.38,-1099.75C489.38,-1099.75 382.62,-1099.75 382.62,-1099.75 376.62,-1099.75 370.62,-1093.75 370.62,-1087.75 370.62,-1087.75 370.62,-1075.75 370.62,-1075.75 370.62,-1069.75 376.62,-1063.75 382.62,-1063.75 382.62,-1063.75 489.38,-1063.75 489.38,-1063.75 495.38,-1063.75 501.38,-1069.75 501.38,-1075.75 501.38,-1075.75 501.38,-1087.75 501.38,-1087.75 501.38,-1093.75 495.38,-1099.75 489.38,-1099.75"/>
<text xml:space="preserve" text-anchor="middle" x="436" y="-1077.08" font-family="Times,serif" font-size="14.00">Gaussian Splats</text>
</g>
<!-- AnySplat&#45;&gt;Gaussian Splats -->
<g id="edge1" class="edge">
<title>AnySplat&#45;&gt;Gaussian Splats</title>
<path fill="none" stroke="#bfbfbf" d="M389.33,-1135.45C396.53,-1127.31 405.28,-1117.44 413.24,-1108.45"/>
<polygon fill="#bfbfbf" stroke="#bfbfbf" points="415.84,-1110.79 419.85,-1100.99 410.6,-1106.15 415.84,-1110.79"/>
</g>
<!-- Interpolated Video -->
<g id="node3" class="node">
<title>Interpolated Video</title>
<path fill="gainsboro" stroke="black" d="M340.38,-1099.75C340.38,-1099.75 215.62,-1099.75 215.62,-1099.75 209.62,-1099.75 203.62,-1093.75 203.62,-1087.75 203.62,-1087.75 203.62,-1075.75 203.62,-1075.75 203.62,-1069.75 209.62,-1063.75 215.62,-1063.75 215.62,-1063.75 340.38,-1063.75 340.38,-1063.75 346.38,-1063.75 352.38,-1069.75 352.38,-1075.75 352.38,-1075.75 352.38,-1087.75 352.38,-1087.75 352.38,-1093.75 346.38,-1099.75 340.38,-1099.75"/>
<text xml:space="preserve" text-anchor="middle" x="278" y="-1077.08" font-family="Times,serif" font-size="14.00">Interpolated Video</text>
</g>
<!-- AnySplat&#45;&gt;Interpolated Video -->
<g id="edge2" class="edge">
<title>AnySplat&#45;&gt;Interpolated Video</title>
<path fill="none" stroke="#bfbfbf" d="M350.27,-1135.45C338.38,-1126.78 323.81,-1116.15 310.86,-1106.71"/>
<polygon fill="#bfbfbf" stroke="#bfbfbf" points="313.16,-1104.05 303.01,-1100.99 309.03,-1109.71 313.16,-1104.05"/>
</g>
<!-- Key Images -->
<g id="node4" class="node">
<title>Key Images</title>
<ellipse fill="none" stroke="black" cx="374" cy="-1231" rx="69.1" ry="18"/>
<text xml:space="preserve" text-anchor="middle" x="374" y="-1226.33" font-family="Times,serif" font-size="14.00">Key Images</text>
</g>
<!-- Key Images&#45;&gt;AnySplat -->
<g id="edge3" class="edge">
<title>Key Images&#45;&gt;AnySplat</title>
<path fill="none" stroke="#bfbfbf" d="M374,-1212.55C374,-1203.9 374,-1193.25 374,-1183.44"/>
<polygon fill="#bfbfbf" stroke="#bfbfbf" points="377.5,-1183.62 374,-1173.62 370.5,-1183.62 377.5,-1183.62"/>
</g>
<!-- Multiview Optimizer -->
<g id="node29" class="node">
<title>Multiview Optimizer</title>
<path fill="lightskyblue" stroke="black" d="M605.5,-1171.75C605.5,-1171.75 466.5,-1171.75 466.5,-1171.75 460.5,-1171.75 454.5,-1165.75 454.5,-1159.75 454.5,-1159.75 454.5,-1147.75 454.5,-1147.75 454.5,-1141.75 460.5,-1135.75 466.5,-1135.75 466.5,-1135.75 605.5,-1135.75 605.5,-1135.75 611.5,-1135.75 617.5,-1141.75 617.5,-1147.75 617.5,-1147.75 617.5,-1159.75 617.5,-1159.75 617.5,-1165.75 611.5,-1171.75 605.5,-1171.75"/>
<text xml:space="preserve" text-anchor="middle" x="536" y="-1149.08" font-family="Times,serif" font-size="14.00">Multiview Optimizer</text>
</g>
<!-- Key Images&#45;&gt;Multiview Optimizer -->
<g id="edge36" class="edge">
<title>Key Images&#45;&gt;Multiview Optimizer</title>
<path fill="none" stroke="#bfbfbf" d="M406.78,-1214.77C430.21,-1203.89 462.09,-1189.08 488.33,-1176.89"/>
<polygon fill="#bfbfbf" stroke="#bfbfbf" points="489.48,-1180.22 497.07,-1172.83 486.53,-1173.87 489.48,-1180.22"/>
</g>
<!-- VGGT -->
<g id="node44" class="node">
<title>VGGT</title>
<path fill="lightskyblue" stroke="black" d="M179.62,-1171.75C179.62,-1171.75 146.38,-1171.75 146.38,-1171.75 140.38,-1171.75 134.38,-1165.75 134.38,-1159.75 134.38,-1159.75 134.38,-1147.75 134.38,-1147.75 134.38,-1141.75 140.38,-1135.75 146.38,-1135.75 146.38,-1135.75 179.62,-1135.75 179.62,-1135.75 185.62,-1135.75 191.62,-1141.75 191.62,-1147.75 191.62,-1147.75 191.62,-1159.75 191.62,-1159.75 191.62,-1165.75 185.62,-1171.75 179.62,-1171.75"/>
<text xml:space="preserve" text-anchor="middle" x="163" y="-1149.08" font-family="Times,serif" font-size="14.00">VGGT</text>
</g>
<!-- Key Images&#45;&gt;VGGT -->
<g id="edge56" class="edge">
<title>Key Images&#45;&gt;VGGT</title>
<path fill="none" stroke="#bfbfbf" d="M334.31,-1215.85C296.61,-1202.4 240.24,-1182.3 202.57,-1168.86"/>
<polygon fill="#bfbfbf" stroke="#bfbfbf" points="204.02,-1165.66 193.43,-1165.6 201.67,-1172.26 204.02,-1165.66"/>
</g>
<!-- ClusterOptimizerCacher -->
<g id="node5" class="node">
<title>ClusterOptimizerCacher</title>
<path fill="lightskyblue" stroke="black" d="M751,-942.5C751,-942.5 585,-942.5 585,-942.5 579,-942.5 573,-936.5 573,-930.5 573,-930.5 573,-918.5 573,-918.5 573,-912.5 579,-906.5 585,-906.5 585,-906.5 751,-906.5 751,-906.5 757,-906.5 763,-912.5 763,-918.5 763,-918.5 763,-930.5 763,-930.5 763,-936.5 757,-942.5 751,-942.5"/>
<text xml:space="preserve" text-anchor="middle" x="668" y="-919.83" font-family="Times,serif" font-size="14.00">ClusterOptimizerCacher</text>
</g>
<!-- Cluster Reconstruction -->
<g id="node6" class="node">
<title>Cluster Reconstruction</title>
<path fill="gainsboro" stroke="black" d="M746.5,-857.25C746.5,-857.25 589.5,-857.25 589.5,-857.25 583.5,-857.25 577.5,-851.25 577.5,-845.25 577.5,-845.25 577.5,-833.25 577.5,-833.25 577.5,-827.25 583.5,-821.25 589.5,-821.25 589.5,-821.25 746.5,-821.25 746.5,-821.25 752.5,-821.25 758.5,-827.25 758.5,-833.25 758.5,-833.25 758.5,-845.25 758.5,-845.25 758.5,-851.25 752.5,-857.25 746.5,-857.25"/>
<text xml:space="preserve" text-anchor="middle" x="668" y="-834.58" font-family="Times,serif" font-size="14.00">Cluster Reconstruction</text>
</g>
<!-- ClusterOptimizerCacher&#45;&gt;Cluster Reconstruction -->
<g id="edge4" class="edge">
<title>ClusterOptimizerCacher&#45;&gt;Cluster Reconstruction</title>
<path fill="none" stroke="#bfbfbf" d="M668,-906.25C668,-895.42 668,-881.2 668,-868.73"/>
<polygon fill="#bfbfbf" stroke="#bfbfbf" points="671.5,-868.99 668,-858.99 664.5,-868.99 671.5,-868.99"/>
</g>
<!-- Visibility Graph -->
<g id="node7" class="node">
<title>Visibility Graph</title>
<path fill="gainsboro" stroke="black" d="M909.88,-1027.75C909.88,-1027.75 806.12,-1027.75 806.12,-1027.75 800.12,-1027.75 794.12,-1021.75 794.12,-1015.75 794.12,-1015.75 794.12,-1003.75 794.12,-1003.75 794.12,-997.75 800.12,-991.75 806.12,-991.75 806.12,-991.75 909.88,-991.75 909.88,-991.75 915.88,-991.75 921.88,-997.75 921.88,-1003.75 921.88,-1003.75 921.88,-1015.75 921.88,-1015.75 921.88,-1021.75 915.88,-1027.75 909.88,-1027.75"/>
<text xml:space="preserve" text-anchor="middle" x="858" y="-1005.08" font-family="Times,serif" font-size="14.00">Visibility Graph</text>
</g>
<!-- Visibility Graph&#45;&gt;ClusterOptimizerCacher -->
<g id="edge5" class="edge">
<title>Visibility Graph&#45;&gt;ClusterOptimizerCacher</title>
<path fill="none" stroke="#bfbfbf" d="M812.56,-991.26C800.31,-986.39 787.1,-980.99 775,-975.75 754.76,-966.98 732.65,-956.72 713.81,-947.76"/>
<polygon fill="#bfbfbf" stroke="#bfbfbf" points="715.32,-944.6 704.79,-943.45 712.3,-950.92 715.32,-944.6"/>
</g>
<!-- Graph Partitioner -->
<g id="node21" class="node">
<title>Graph Partitioner</title>
<path fill="lightskyblue" stroke="black" d="M917,-942.5C917,-942.5 799,-942.5 799,-942.5 793,-942.5 787,-936.5 787,-930.5 787,-930.5 787,-918.5 787,-918.5 787,-912.5 793,-906.5 799,-906.5 799,-906.5 917,-906.5 917,-906.5 923,-906.5 929,-912.5 929,-918.5 929,-918.5 929,-930.5 929,-930.5 929,-936.5 923,-942.5 917,-942.5"/>
<text xml:space="preserve" text-anchor="middle" x="858" y="-919.83" font-family="Times,serif" font-size="14.00">Graph Partitioner</text>
</g>
<!-- Visibility Graph&#45;&gt;Graph Partitioner -->
<g id="edge22" class="edge">
<title>Visibility Graph&#45;&gt;Graph Partitioner</title>
<path fill="none" stroke="#bfbfbf" d="M858,-991.5C858,-980.67 858,-966.45 858,-953.98"/>
<polygon fill="#bfbfbf" stroke="#bfbfbf" points="861.5,-954.24 858,-944.24 854.5,-954.24 861.5,-954.24"/>
</g>
<!-- Images -->
<g id="node8" class="node">
<title>Images</title>
<path fill="gainsboro" stroke="black" d="M1446.88,-1099.75C1446.88,-1099.75 1403.12,-1099.75 1403.12,-1099.75 1397.12,-1099.75 1391.12,-1093.75 1391.12,-1087.75 1391.12,-1087.75 1391.12,-1075.75 1391.12,-1075.75 1391.12,-1069.75 1397.12,-1063.75 1403.12,-1063.75 1403.12,-1063.75 1446.88,-1063.75 1446.88,-1063.75 1452.88,-1063.75 1458.88,-1069.75 1458.88,-1075.75 1458.88,-1075.75 1458.88,-1087.75 1458.88,-1087.75 1458.88,-1093.75 1452.88,-1099.75 1446.88,-1099.75"/>
<text xml:space="preserve" text-anchor="middle" x="1425" y="-1077.08" font-family="Times,serif" font-size="14.00">Images</text>
</g>
<!-- Images&#45;&gt;ClusterOptimizerCacher -->
<g id="edge6" class="edge">
<title>Images&#45;&gt;ClusterOptimizerCacher</title>
<path fill="none" stroke="#bfbfbf" d="M1400.01,-1063.49C1394.32,-1060.35 1388.14,-1057.52 1382,-1055.75 1338.31,-1043.17 595.6,-1060.45 564,-1027.75 550.41,-1013.69 554.11,-1000.62 564,-983.75 573.06,-968.3 587.87,-956.64 603.52,-947.97"/>
<polygon fill="#bfbfbf" stroke="#bfbfbf" points="604.67,-951.31 611.98,-943.64 601.49,-945.08 604.67,-951.31"/>
</g>
<!-- Multi&#45;view Stereo -->
<g id="node27" class="node">
<title>Multi&#45;view Stereo</title>
<path fill="lightskyblue" stroke="black" d="M1377.75,-124C1377.75,-124 1258.25,-124 1258.25,-124 1252.25,-124 1246.25,-118 1246.25,-112 1246.25,-112 1246.25,-100 1246.25,-100 1246.25,-94 1252.25,-88 1258.25,-88 1258.25,-88 1377.75,-88 1377.75,-88 1383.75,-88 1389.75,-94 1389.75,-100 1389.75,-100 1389.75,-112 1389.75,-112 1389.75,-118 1383.75,-124 1377.75,-124"/>
<text xml:space="preserve" text-anchor="middle" x="1318" y="-101.33" font-family="Times,serif" font-size="14.00">Multi&#45;view Stereo</text>
</g>
<!-- Images&#45;&gt;Multi&#45;view Stereo -->
<g id="edge32" class="edge">
<title>Images&#45;&gt;Multi&#45;view Stereo</title>
<path fill="none" stroke="#bfbfbf" d="M1440.81,-1063.61C1464.12,-1036.48 1505,-980.99 1505,-925.5 1505,-925.5 1505,-925.5 1505,-262.25 1505,-195.85 1434.35,-152.42 1379.9,-128.81"/>
<polygon fill="#bfbfbf" stroke="#bfbfbf" points="1381.57,-125.72 1370.99,-125.08 1378.86,-132.17 1381.57,-125.72"/>
</g>
<!-- OneViewData -->
<g id="node9" class="node">
<title>OneViewData</title>
<ellipse fill="none" stroke="black" cx="652" cy="-1009.75" rx="79.09" ry="18"/>
<text xml:space="preserve" text-anchor="middle" x="652" y="-1005.08" font-family="Times,serif" font-size="14.00">OneViewData</text>
</g>
<!-- OneViewData&#45;&gt;ClusterOptimizerCacher -->
<g id="edge7" class="edge">
<title>OneViewData&#45;&gt;ClusterOptimizerCacher</title>
<path fill="none" stroke="#bfbfbf" d="M655.32,-991.5C657.4,-980.67 660.13,-966.45 662.53,-953.98"/>
<polygon fill="#bfbfbf" stroke="#bfbfbf" points="665.95,-954.69 664.4,-944.21 659.08,-953.37 665.95,-954.69"/>
</g>
<!-- Data Association -->
<g id="node10" class="node">
<title>Data Association</title>
<path fill="lightskyblue" stroke="black" d="M1288.62,-425.25C1288.62,-425.25 1177.38,-425.25 1177.38,-425.25 1171.38,-425.25 1165.38,-419.25 1165.38,-413.25 1165.38,-413.25 1165.38,-401.25 1165.38,-401.25 1165.38,-395.25 1171.38,-389.25 1177.38,-389.25 1177.38,-389.25 1288.62,-389.25 1288.62,-389.25 1294.62,-389.25 1300.62,-395.25 1300.62,-401.25 1300.62,-401.25 1300.62,-413.25 1300.62,-413.25 1300.62,-419.25 1294.62,-425.25 1288.62,-425.25"/>
<text xml:space="preserve" text-anchor="middle" x="1233" y="-402.57" font-family="Times,serif" font-size="14.00">Data Association</text>
</g>
<!-- 3D Tracks -->
<g id="node11" class="node">
<title>3D Tracks</title>
<path fill="gainsboro" stroke="black" d="M1253,-353.25C1253,-353.25 1189,-353.25 1189,-353.25 1183,-353.25 1177,-347.25 1177,-341.25 1177,-341.25 1177,-329.25 1177,-329.25 1177,-323.25 1183,-317.25 1189,-317.25 1189,-317.25 1253,-317.25 1253,-317.25 1259,-317.25 1265,-323.25 1265,-329.25 1265,-329.25 1265,-341.25 1265,-341.25 1265,-347.25 1259,-353.25 1253,-353.25"/>
<text xml:space="preserve" text-anchor="middle" x="1221" y="-330.57" font-family="Times,serif" font-size="14.00">3D Tracks</text>
</g>
<!-- Data Association&#45;&gt;3D Tracks -->
<g id="edge8" class="edge">
<title>Data Association&#45;&gt;3D Tracks</title>
<path fill="none" stroke="#bfbfbf" d="M1230.03,-388.95C1228.77,-381.57 1227.26,-372.77 1225.84,-364.5"/>
<polygon fill="#bfbfbf" stroke="#bfbfbf" points="1229.33,-364.11 1224.19,-354.85 1222.43,-365.29 1229.33,-364.11"/>
</g>
<!-- Global Bundle Adjustment -->
<g id="node16" class="node">
<title>Global Bundle Adjustment</title>
<path fill="lightskyblue" stroke="black" d="M1273.75,-281.25C1273.75,-281.25 1094.25,-281.25 1094.25,-281.25 1088.25,-281.25 1082.25,-275.25 1082.25,-269.25 1082.25,-269.25 1082.25,-257.25 1082.25,-257.25 1082.25,-251.25 1088.25,-245.25 1094.25,-245.25 1094.25,-245.25 1273.75,-245.25 1273.75,-245.25 1279.75,-245.25 1285.75,-251.25 1285.75,-257.25 1285.75,-257.25 1285.75,-269.25 1285.75,-269.25 1285.75,-275.25 1279.75,-281.25 1273.75,-281.25"/>
<text xml:space="preserve" text-anchor="middle" x="1184" y="-258.57" font-family="Times,serif" font-size="14.00">Global Bundle Adjustment</text>
</g>
<!-- 3D Tracks&#45;&gt;Global Bundle Adjustment -->
<g id="edge20" class="edge">
<title>3D Tracks&#45;&gt;Global Bundle Adjustment</title>
<path fill="none" stroke="#bfbfbf" d="M1211.85,-316.95C1207.78,-309.23 1202.88,-299.96 1198.33,-291.36"/>
<polygon fill="#bfbfbf" stroke="#bfbfbf" points="1201.52,-289.9 1193.75,-282.69 1195.33,-293.17 1201.52,-289.9"/>
</g>
<!-- View&#45;Graph Correspondences -->
<g id="node12" class="node">
<title>View&#45;Graph Correspondences</title>
<path fill="gainsboro" stroke="black" d="M1388.75,-641.25C1388.75,-641.25 1185.25,-641.25 1185.25,-641.25 1179.25,-641.25 1173.25,-635.25 1173.25,-629.25 1173.25,-629.25 1173.25,-617.25 1173.25,-617.25 1173.25,-611.25 1179.25,-605.25 1185.25,-605.25 1185.25,-605.25 1388.75,-605.25 1388.75,-605.25 1394.75,-605.25 1400.75,-611.25 1400.75,-617.25 1400.75,-617.25 1400.75,-629.25 1400.75,-629.25 1400.75,-635.25 1394.75,-641.25 1388.75,-641.25"/>
<text xml:space="preserve" text-anchor="middle" x="1287" y="-618.58" font-family="Times,serif" font-size="14.00">View&#45;Graph Correspondences</text>
</g>
<!-- View&#45;Graph Correspondences&#45;&gt;Data Association -->
<g id="edge9" class="edge">
<title>View&#45;Graph Correspondences&#45;&gt;Data Association</title>
<path fill="none" stroke="#bfbfbf" d="M1282.67,-605.1C1273.39,-568.32 1251.49,-481.54 1240.13,-436.49"/>
<polygon fill="#bfbfbf" stroke="#bfbfbf" points="1243.56,-435.79 1237.72,-426.95 1236.77,-437.5 1243.56,-435.79"/>
</g>
<!-- Global Rotations -->
<g id="node13" class="node">
<title>Global Rotations</title>
<path fill="gainsboro" stroke="black" d="M1143.25,-641.25C1143.25,-641.25 1032.75,-641.25 1032.75,-641.25 1026.75,-641.25 1020.75,-635.25 1020.75,-629.25 1020.75,-629.25 1020.75,-617.25 1020.75,-617.25 1020.75,-611.25 1026.75,-605.25 1032.75,-605.25 1032.75,-605.25 1143.25,-605.25 1143.25,-605.25 1149.25,-605.25 1155.25,-611.25 1155.25,-617.25 1155.25,-617.25 1155.25,-629.25 1155.25,-629.25 1155.25,-635.25 1149.25,-641.25 1143.25,-641.25"/>
<text xml:space="preserve" text-anchor="middle" x="1088" y="-618.58" font-family="Times,serif" font-size="14.00">Global Rotations</text>
</g>
<!-- Global Rotations&#45;&gt;Data Association -->
<g id="edge10" class="edge">
<title>Global Rotations&#45;&gt;Data Association</title>
<path fill="none" stroke="#bfbfbf" d="M1113.11,-604.88C1125.58,-595.37 1140.24,-582.79 1151,-569.25 1184.3,-527.32 1209.65,-469.72 1222.85,-436"/>
<polygon fill="#bfbfbf" stroke="#bfbfbf" points="1226.01,-437.53 1226.31,-426.94 1219.47,-435.03 1226.01,-437.53"/>
</g>
<!-- Global Rotations&#45;&gt;Global Bundle Adjustment -->
<g id="edge19" class="edge">
<title>Global Rotations&#45;&gt;Global Bundle Adjustment</title>
<path fill="none" stroke="#bfbfbf" d="M1109.06,-604.77C1118.94,-595.32 1129.87,-582.83 1136,-569.25 1152.37,-532.97 1146,-520.05 1146,-480.25 1146,-480.25 1146,-480.25 1146,-406.25 1146,-365.43 1160.84,-320.18 1171.97,-291.97"/>
<polygon fill="#bfbfbf" stroke="#bfbfbf" points="1175.2,-293.33 1175.74,-282.74 1168.72,-290.68 1175.2,-293.33"/>
</g>
<!-- Translation Averaging -->
<g id="node33" class="node">
<title>Translation Averaging</title>
<path fill="lightskyblue" stroke="black" d="M1115.12,-569.25C1115.12,-569.25 964.88,-569.25 964.88,-569.25 958.88,-569.25 952.88,-563.25 952.88,-557.25 952.88,-557.25 952.88,-545.25 952.88,-545.25 952.88,-539.25 958.88,-533.25 964.88,-533.25 964.88,-533.25 1115.12,-533.25 1115.12,-533.25 1121.12,-533.25 1127.12,-539.25 1127.12,-545.25 1127.12,-545.25 1127.12,-557.25 1127.12,-557.25 1127.12,-563.25 1121.12,-569.25 1115.12,-569.25"/>
<text xml:space="preserve" text-anchor="middle" x="1040" y="-546.58" font-family="Times,serif" font-size="14.00">Translation Averaging</text>
</g>
<!-- Global Rotations&#45;&gt;Translation Averaging -->
<g id="edge42" class="edge">
<title>Global Rotations&#45;&gt;Translation Averaging</title>
<path fill="none" stroke="#bfbfbf" d="M1076.13,-604.95C1070.73,-597.06 1064.21,-587.55 1058.2,-578.8"/>
<polygon fill="#bfbfbf" stroke="#bfbfbf" points="1061.13,-576.87 1052.58,-570.6 1055.35,-580.83 1061.13,-576.87"/>
</g>
<!-- Global Translations -->
<g id="node14" class="node">
<title>Global Translations</title>
<path fill="gainsboro" stroke="black" d="M1115.38,-497.25C1115.38,-497.25 984.62,-497.25 984.62,-497.25 978.62,-497.25 972.62,-491.25 972.62,-485.25 972.62,-485.25 972.62,-473.25 972.62,-473.25 972.62,-467.25 978.62,-461.25 984.62,-461.25 984.62,-461.25 1115.38,-461.25 1115.38,-461.25 1121.38,-461.25 1127.38,-467.25 1127.38,-473.25 1127.38,-473.25 1127.38,-485.25 1127.38,-485.25 1127.38,-491.25 1121.38,-497.25 1115.38,-497.25"/>
<text xml:space="preserve" text-anchor="middle" x="1050" y="-474.57" font-family="Times,serif" font-size="14.00">Global Translations</text>
</g>
<!-- Global Translations&#45;&gt;Data Association -->
<g id="edge11" class="edge">
<title>Global Translations&#45;&gt;Data Association</title>
<path fill="none" stroke="#bfbfbf" d="M1095.71,-460.77C1120.36,-451.33 1151,-439.62 1177.07,-429.64"/>
<polygon fill="#bfbfbf" stroke="#bfbfbf" points="1178.06,-433.01 1186.15,-426.17 1175.56,-426.48 1178.06,-433.01"/>
</g>
<!-- Global Translations&#45;&gt;Global Bundle Adjustment -->
<g id="edge18" class="edge">
<title>Global Translations&#45;&gt;Global Bundle Adjustment</title>
<path fill="none" stroke="#bfbfbf" d="M1058.66,-460.77C1073.87,-430.58 1107.02,-367.14 1141,-317.25 1147.27,-308.05 1154.73,-298.45 1161.67,-290"/>
<polygon fill="#bfbfbf" stroke="#bfbfbf" points="1164.2,-292.43 1167.93,-282.51 1158.83,-287.94 1164.2,-292.43"/>
</g>
<!-- Camera Intrinsics -->
<g id="node15" class="node">
<title>Camera Intrinsics</title>
<path fill="gainsboro" stroke="black" d="M1608.75,-1099.75C1608.75,-1099.75 1489.25,-1099.75 1489.25,-1099.75 1483.25,-1099.75 1477.25,-1093.75 1477.25,-1087.75 1477.25,-1087.75 1477.25,-1075.75 1477.25,-1075.75 1477.25,-1069.75 1483.25,-1063.75 1489.25,-1063.75 1489.25,-1063.75 1608.75,-1063.75 1608.75,-1063.75 1614.75,-1063.75 1620.75,-1069.75 1620.75,-1075.75 1620.75,-1075.75 1620.75,-1087.75 1620.75,-1087.75 1620.75,-1093.75 1614.75,-1099.75 1608.75,-1099.75"/>
<text xml:space="preserve" text-anchor="middle" x="1549" y="-1077.08" font-family="Times,serif" font-size="14.00">Camera Intrinsics</text>
</g>
<!-- Camera Intrinsics&#45;&gt;Data Association -->
<g id="edge12" class="edge">
<title>Camera Intrinsics&#45;&gt;Data Association</title>
<path fill="none" stroke="#bfbfbf" d="M1499.82,-1063.27C1489.43,-1060.23 1478.45,-1057.49 1468,-1055.75 1418.44,-1047.49 602.14,-1060.46 564,-1027.75 528.92,-997.66 545,-971.72 545,-925.5 545,-925.5 545,-925.5 545,-550.25 545,-427.12 973.02,-409.88 1153.86,-408.1"/>
<polygon fill="#bfbfbf" stroke="#bfbfbf" points="1153.67,-411.6 1163.64,-408.02 1153.61,-404.6 1153.67,-411.6"/>
</g>
<!-- Camera Intrinsics&#45;&gt;Global Bundle Adjustment -->
<g id="edge17" class="edge">
<title>Camera Intrinsics&#45;&gt;Global Bundle Adjustment</title>
<path fill="none" stroke="#bfbfbf" d="M1548.45,-1063.52C1547.58,-1034.88 1546,-975.64 1546,-925.5 1546,-925.5 1546,-925.5 1546,-406.25 1546,-350.5 1395.33,-307.58 1288.4,-284.14"/>
<polygon fill="#bfbfbf" stroke="#bfbfbf" points="1289.22,-280.74 1278.7,-282.05 1287.74,-287.58 1289.22,-280.74"/>
</g>
<!-- Two&#45;View Bundle Adjustment -->
<g id="node35" class="node">
<title>Two&#45;View Bundle Adjustment</title>
<path fill="lightskyblue" stroke="black" d="M2066.62,-1027.75C2066.62,-1027.75 1865.38,-1027.75 1865.38,-1027.75 1859.38,-1027.75 1853.38,-1021.75 1853.38,-1015.75 1853.38,-1015.75 1853.38,-1003.75 1853.38,-1003.75 1853.38,-997.75 1859.38,-991.75 1865.38,-991.75 1865.38,-991.75 2066.62,-991.75 2066.62,-991.75 2072.62,-991.75 2078.62,-997.75 2078.62,-1003.75 2078.62,-1003.75 2078.62,-1015.75 2078.62,-1015.75 2078.62,-1021.75 2072.62,-1027.75 2066.62,-1027.75"/>
<text xml:space="preserve" text-anchor="middle" x="1966" y="-1005.08" font-family="Times,serif" font-size="14.00">Two&#45;View Bundle Adjustment</text>
</g>
<!-- Camera Intrinsics&#45;&gt;Two&#45;View Bundle Adjustment -->
<g id="edge52" class="edge">
<title>Camera Intrinsics&#45;&gt;Two&#45;View Bundle Adjustment</title>
<path fill="none" stroke="#bfbfbf" d="M1602.9,-1063.37C1612.84,-1060.55 1623.18,-1057.86 1633,-1055.75 1701.47,-1041.03 1778.94,-1030.22 1841.93,-1022.89"/>
<polygon fill="#bfbfbf" stroke="#bfbfbf" points="1842.07,-1026.4 1851.6,-1021.78 1841.27,-1019.44 1842.07,-1026.4"/>
</g>
<!-- Verifier -->
<g id="node46" class="node">
<title>Verifier</title>
<path fill="lightskyblue" stroke="black" d="M1954.25,-1171.75C1954.25,-1171.75 1909.75,-1171.75 1909.75,-1171.75 1903.75,-1171.75 1897.75,-1165.75 1897.75,-1159.75 1897.75,-1159.75 1897.75,-1147.75 1897.75,-1147.75 1897.75,-1141.75 1903.75,-1135.75 1909.75,-1135.75 1909.75,-1135.75 1954.25,-1135.75 1954.25,-1135.75 1960.25,-1135.75 1966.25,-1141.75 1966.25,-1147.75 1966.25,-1147.75 1966.25,-1159.75 1966.25,-1159.75 1966.25,-1165.75 1960.25,-1171.75 1954.25,-1171.75"/>
<text xml:space="preserve" text-anchor="middle" x="1932" y="-1149.08" font-family="Times,serif" font-size="14.00">Verifier</text>
</g>
<!-- Camera Intrinsics&#45;&gt;Verifier -->
<g id="edge62" class="edge">
<title>Camera Intrinsics&#45;&gt;Verifier</title>
<path fill="none" stroke="#bfbfbf" d="M1620.92,-1097.42C1625,-1098.22 1629.05,-1099 1633,-1099.75 1722.59,-1116.75 1827.61,-1134.97 1886.32,-1145.01"/>
<polygon fill="#bfbfbf" stroke="#bfbfbf" points="1885.48,-1148.41 1895.93,-1146.65 1886.66,-1141.51 1885.48,-1148.41"/>
</g>
<!-- View&#45;Graph Estimator -->
<g id="node48" class="node">
<title>View&#45;Graph Estimator</title>
<path fill="lightskyblue" stroke="black" d="M1388.5,-857.25C1388.5,-857.25 1237.5,-857.25 1237.5,-857.25 1231.5,-857.25 1225.5,-851.25 1225.5,-845.25 1225.5,-845.25 1225.5,-833.25 1225.5,-833.25 1225.5,-827.25 1231.5,-821.25 1237.5,-821.25 1237.5,-821.25 1388.5,-821.25 1388.5,-821.25 1394.5,-821.25 1400.5,-827.25 1400.5,-833.25 1400.5,-833.25 1400.5,-845.25 1400.5,-845.25 1400.5,-851.25 1394.5,-857.25 1388.5,-857.25"/>
<text xml:space="preserve" text-anchor="middle" x="1313" y="-834.58" font-family="Times,serif" font-size="14.00">View&#45;Graph Estimator</text>
</g>
<!-- Camera Intrinsics&#45;&gt;View&#45;Graph Estimator -->
<g id="edge68" class="edge">
<title>Camera Intrinsics&#45;&gt;View&#45;Graph Estimator</title>
<path fill="none" stroke="#bfbfbf" d="M1532.03,-1063.45C1490.96,-1021.61 1386.1,-914.74 1337.91,-865.63"/>
<polygon fill="#bfbfbf" stroke="#bfbfbf" points="1340.7,-863.48 1331.2,-858.79 1335.7,-868.38 1340.7,-863.48"/>
</g>
<!-- Optimized Camera Poses -->
<g id="node17" class="node">
<title>Optimized Camera Poses</title>
<path fill="gainsboro" stroke="black" d="M1205.25,-209.25C1205.25,-209.25 1034.75,-209.25 1034.75,-209.25 1028.75,-209.25 1022.75,-203.25 1022.75,-197.25 1022.75,-197.25 1022.75,-185.25 1022.75,-185.25 1022.75,-179.25 1028.75,-173.25 1034.75,-173.25 1034.75,-173.25 1205.25,-173.25 1205.25,-173.25 1211.25,-173.25 1217.25,-179.25 1217.25,-185.25 1217.25,-185.25 1217.25,-197.25 1217.25,-197.25 1217.25,-203.25 1211.25,-209.25 1205.25,-209.25"/>
<text xml:space="preserve" text-anchor="middle" x="1120" y="-186.57" font-family="Times,serif" font-size="14.00">Optimized Camera Poses</text>
</g>
<!-- Global Bundle Adjustment&#45;&gt;Optimized Camera Poses -->
<g id="edge13" class="edge">
<title>Global Bundle Adjustment&#45;&gt;Optimized Camera Poses</title>
<path fill="none" stroke="#bfbfbf" d="M1168.18,-244.95C1160.66,-236.72 1151.53,-226.73 1143.24,-217.67"/>
<polygon fill="#bfbfbf" stroke="#bfbfbf" points="1145.99,-215.49 1136.66,-210.47 1140.82,-220.21 1145.99,-215.49"/>
</g>
<!-- Optimized 3D Tracks -->
<g id="node18" class="node">
<title>Optimized 3D Tracks</title>
<path fill="gainsboro" stroke="black" d="M1389,-209.25C1389,-209.25 1247,-209.25 1247,-209.25 1241,-209.25 1235,-203.25 1235,-197.25 1235,-197.25 1235,-185.25 1235,-185.25 1235,-179.25 1241,-173.25 1247,-173.25 1247,-173.25 1389,-173.25 1389,-173.25 1395,-173.25 1401,-179.25 1401,-185.25 1401,-185.25 1401,-197.25 1401,-197.25 1401,-203.25 1395,-209.25 1389,-209.25"/>
<text xml:space="preserve" text-anchor="middle" x="1318" y="-186.57" font-family="Times,serif" font-size="14.00">Optimized 3D Tracks</text>
</g>
<!-- Global Bundle Adjustment&#45;&gt;Optimized 3D Tracks -->
<g id="edge14" class="edge">
<title>Global Bundle Adjustment&#45;&gt;Optimized 3D Tracks</title>
<path fill="none" stroke="#bfbfbf" d="M1217.47,-244.77C1234.87,-235.68 1256.33,-224.47 1274.95,-214.74"/>
<polygon fill="#bfbfbf" stroke="#bfbfbf" points="1276.37,-217.94 1283.62,-210.21 1273.13,-211.74 1276.37,-217.94"/>
</g>
<!-- Optimized Camera Poses&#45;&gt;Multi&#45;view Stereo -->
<g id="edge33" class="edge">
<title>Optimized Camera Poses&#45;&gt;Multi&#45;view Stereo</title>
<path fill="none" stroke="#bfbfbf" d="M1161.51,-172.8C1192,-159.98 1233.63,-142.47 1266.29,-128.74"/>
<polygon fill="#bfbfbf" stroke="#bfbfbf" points="1267.29,-132.12 1275.15,-125.02 1264.58,-125.67 1267.29,-132.12"/>
</g>
<!-- Optimized 3D Tracks&#45;&gt;Multi&#45;view Stereo -->
<g id="edge34" class="edge">
<title>Optimized 3D Tracks&#45;&gt;Multi&#45;view Stereo</title>
<path fill="none" stroke="#bfbfbf" d="M1318,-173C1318,-162.17 1318,-147.95 1318,-135.48"/>
<polygon fill="#bfbfbf" stroke="#bfbfbf" points="1321.5,-135.74 1318,-125.74 1314.5,-135.74 1321.5,-135.74"/>
</g>
<!-- Absolute Pose Priors -->
<g id="node19" class="node">
<title>Absolute Pose Priors</title>
<path fill="gainsboro" stroke="black" d="M1360.88,-1099.75C1360.88,-1099.75 1221.12,-1099.75 1221.12,-1099.75 1215.12,-1099.75 1209.12,-1093.75 1209.12,-1087.75 1209.12,-1087.75 1209.12,-1075.75 1209.12,-1075.75 1209.12,-1069.75 1215.12,-1063.75 1221.12,-1063.75 1221.12,-1063.75 1360.88,-1063.75 1360.88,-1063.75 1366.88,-1063.75 1372.88,-1069.75 1372.88,-1075.75 1372.88,-1075.75 1372.88,-1087.75 1372.88,-1087.75 1372.88,-1093.75 1366.88,-1099.75 1360.88,-1099.75"/>
<text xml:space="preserve" text-anchor="middle" x="1291" y="-1077.08" font-family="Times,serif" font-size="14.00">Absolute Pose Priors</text>
</g>
<!-- Absolute Pose Priors&#45;&gt;Global Bundle Adjustment -->
<g id="edge15" class="edge">
<title>Absolute Pose Priors&#45;&gt;Global Bundle Adjustment</title>
<path fill="none" stroke="#bfbfbf" d="M1323.01,-1063.34C1363.77,-1038.55 1429,-988.97 1429,-925.5 1429,-925.5 1429,-925.5 1429,-406.25 1429,-339.65 1360.4,-303.78 1295.8,-284.76"/>
<polygon fill="#bfbfbf" stroke="#bfbfbf" points="1297.1,-281.48 1286.52,-282.14 1295.2,-288.22 1297.1,-281.48"/>
</g>
<!-- Absolute Pose Priors&#45;&gt;Translation Averaging -->
<g id="edge43" class="edge">
<title>Absolute Pose Priors&#45;&gt;Translation Averaging</title>
<path fill="none" stroke="#bfbfbf" d="M1235.12,-1063.28C1223.61,-1060.28 1211.49,-1057.55 1200,-1055.75 1057.39,-1033.38 685.36,-1080.54 551,-1027.75 485.79,-1002.12 431,-995.57 431,-925.5 431,-925.5 431,-925.5 431,-694.25 431,-590.79 768.56,-562.67 941.05,-555.06"/>
<polygon fill="#bfbfbf" stroke="#bfbfbf" points="941.07,-558.56 950.91,-554.64 940.77,-551.57 941.07,-558.56"/>
</g>
<!-- Relative Pose Priors -->
<g id="node20" class="node">
<title>Relative Pose Priors</title>
<path fill="gainsboro" stroke="black" d="M1029,-1099.75C1029,-1099.75 893,-1099.75 893,-1099.75 887,-1099.75 881,-1093.75 881,-1087.75 881,-1087.75 881,-1075.75 881,-1075.75 881,-1069.75 887,-1063.75 893,-1063.75 893,-1063.75 1029,-1063.75 1029,-1063.75 1035,-1063.75 1041,-1069.75 1041,-1075.75 1041,-1075.75 1041,-1087.75 1041,-1087.75 1041,-1093.75 1035,-1099.75 1029,-1099.75"/>
<text xml:space="preserve" text-anchor="middle" x="961" y="-1077.08" font-family="Times,serif" font-size="14.00">Relative Pose Priors</text>
</g>
<!-- Relative Pose Priors&#45;&gt;Global Bundle Adjustment -->
<g id="edge16" class="edge">
<title>Relative Pose Priors&#45;&gt;Global Bundle Adjustment</title>
<path fill="none" stroke="#bfbfbf" d="M905.87,-1063.27C894.76,-1060.31 883.08,-1057.6 872,-1055.75 818.87,-1046.86 430.61,-1060.7 388,-1027.75 350.22,-998.54 355,-973.25 355,-925.5 355,-925.5 355,-925.5 355,-406.25 355,-334.5 843.71,-289.22 1070.67,-272.06"/>
<polygon fill="#bfbfbf" stroke="#bfbfbf" points="1070.71,-275.56 1080.42,-271.33 1070.19,-268.58 1070.71,-275.56"/>
</g>
<!-- Rotation Averaging -->
<g id="node31" class="node">
<title>Rotation Averaging</title>
<path fill="lightskyblue" stroke="black" d="M1369,-713.25C1369,-713.25 1239,-713.25 1239,-713.25 1233,-713.25 1227,-707.25 1227,-701.25 1227,-701.25 1227,-689.25 1227,-689.25 1227,-683.25 1233,-677.25 1239,-677.25 1239,-677.25 1369,-677.25 1369,-677.25 1375,-677.25 1381,-683.25 1381,-689.25 1381,-689.25 1381,-701.25 1381,-701.25 1381,-707.25 1375,-713.25 1369,-713.25"/>
<text xml:space="preserve" text-anchor="middle" x="1304" y="-690.58" font-family="Times,serif" font-size="14.00">Rotation Averaging</text>
</g>
<!-- Relative Pose Priors&#45;&gt;Rotation Averaging -->
<g id="edge39" class="edge">
<title>Relative Pose Priors&#45;&gt;Rotation Averaging</title>
<path fill="none" stroke="#bfbfbf" d="M904.87,-1063.27C894.05,-1060.39 882.74,-1057.71 872,-1055.75 801.56,-1042.9 614.15,-1061.51 551,-1027.75 499.63,-1000.29 469,-983.75 469,-925.5 469,-925.5 469,-925.5 469,-838.25 469,-795.88 519.54,-822.01 561,-813.25 846.32,-752.98 925.06,-763.83 1215.37,-713.67"/>
<polygon fill="#bfbfbf" stroke="#bfbfbf" points="1215.93,-717.12 1225.18,-711.96 1214.73,-710.23 1215.93,-717.12"/>
</g>
<!-- Relative Pose Priors&#45;&gt;Translation Averaging -->
<g id="edge44" class="edge">
<title>Relative Pose Priors&#45;&gt;Translation Averaging</title>
<path fill="none" stroke="#bfbfbf" d="M905.87,-1063.3C894.75,-1060.34 883.08,-1057.62 872,-1055.75 822.06,-1047.3 455.71,-1060.41 417,-1027.75 381.32,-997.65 393,-972.18 393,-925.5 393,-925.5 393,-925.5 393,-694.25 393,-653.28 385.56,-631.52 417,-605.25 456.29,-572.42 776.04,-559.19 941.52,-554.51"/>
<polygon fill="#bfbfbf" stroke="#bfbfbf" points="941.27,-558.02 951.17,-554.24 941.08,-551.02 941.27,-558.02"/>
</g>
<!-- Relative Pose Priors&#45;&gt;Two&#45;View Bundle Adjustment -->
<g id="edge51" class="edge">
<title>Relative Pose Priors&#45;&gt;Two&#45;View Bundle Adjustment</title>
<path fill="none" stroke="#bfbfbf" d="M1015.64,-1063.31C1026.9,-1060.31 1038.75,-1057.58 1050,-1055.75 1306.06,-1014.19 1373.91,-1040.59 1633,-1027.75 1702.13,-1024.33 1779.33,-1020.39 1841.98,-1017.17"/>
<polygon fill="#bfbfbf" stroke="#bfbfbf" points="1841.78,-1020.69 1851.59,-1016.68 1841.42,-1013.69 1841.78,-1020.69"/>
</g>
<!-- ClusterTree -->
<g id="node22" class="node">
<title>ClusterTree</title>
<path fill="gainsboro" stroke="black" d="M896.38,-857.25C896.38,-857.25 819.62,-857.25 819.62,-857.25 813.62,-857.25 807.62,-851.25 807.62,-845.25 807.62,-845.25 807.62,-833.25 807.62,-833.25 807.62,-827.25 813.62,-821.25 819.62,-821.25 819.62,-821.25 896.38,-821.25 896.38,-821.25 902.38,-821.25 908.38,-827.25 908.38,-833.25 908.38,-833.25 908.38,-845.25 908.38,-845.25 908.38,-851.25 902.38,-857.25 896.38,-857.25"/>
<text xml:space="preserve" text-anchor="middle" x="858" y="-834.58" font-family="Times,serif" font-size="14.00">ClusterTree</text>
</g>
<!-- Graph Partitioner&#45;&gt;ClusterTree -->
<g id="edge21" class="edge">
<title>Graph Partitioner&#45;&gt;ClusterTree</title>
<path fill="none" stroke="#bfbfbf" d="M858,-906.25C858,-895.42 858,-881.2 858,-868.73"/>
<polygon fill="#bfbfbf" stroke="#bfbfbf" points="861.5,-868.99 858,-858.99 854.5,-868.99 861.5,-868.99"/>
</g>
<!-- Image Loader -->
<g id="node23" class="node">
<title>Image Loader</title>
<path fill="lightskyblue" stroke="black" d="M1253.12,-1171.75C1253.12,-1171.75 1162.88,-1171.75 1162.88,-1171.75 1156.88,-1171.75 1150.88,-1165.75 1150.88,-1159.75 1150.88,-1159.75 1150.88,-1147.75 1150.88,-1147.75 1150.88,-1141.75 1156.88,-1135.75 1162.88,-1135.75 1162.88,-1135.75 1253.12,-1135.75 1253.12,-1135.75 1259.12,-1135.75 1265.12,-1141.75 1265.12,-1147.75 1265.12,-1147.75 1265.12,-1159.75 1265.12,-1159.75 1265.12,-1165.75 1259.12,-1171.75 1253.12,-1171.75"/>
<text xml:space="preserve" text-anchor="middle" x="1208" y="-1149.08" font-family="Times,serif" font-size="14.00">Image Loader</text>
</g>
<!-- Image Loader&#45;&gt;Images -->
<g id="edge23" class="edge">
<title>Image Loader&#45;&gt;Images</title>
<path fill="none" stroke="#bfbfbf" d="M1265.59,-1136.48C1297.07,-1127.29 1336.91,-1115.2 1380.08,-1100.29"/>
<polygon fill="#bfbfbf" stroke="#bfbfbf" points="1381.11,-1103.64 1389.4,-1097.05 1378.8,-1097.03 1381.11,-1103.64"/>
</g>
<!-- Image Loader&#45;&gt;Camera Intrinsics -->
<g id="edge24" class="edge">
<title>Image Loader&#45;&gt;Camera Intrinsics</title>
<path fill="none" stroke="#bfbfbf" d="M1265.59,-1141.11C1315.82,-1130.93 1390.96,-1115.66 1465.96,-1100.17"/>
<polygon fill="#bfbfbf" stroke="#bfbfbf" points="1466.45,-1103.64 1475.53,-1098.19 1465.03,-1096.78 1466.45,-1103.64"/>
</g>
<!-- Image Loader&#45;&gt;Absolute Pose Priors -->
<g id="edge27" class="edge">
<title>Image Loader&#45;&gt;Absolute Pose Priors</title>
<path fill="none" stroke="#bfbfbf" d="M1228.52,-1135.45C1238.59,-1126.95 1250.91,-1116.56 1261.93,-1107.26"/>
<polygon fill="#bfbfbf" stroke="#bfbfbf" points="1263.89,-1110.2 1269.27,-1101.07 1259.37,-1104.84 1263.89,-1110.2"/>
</g>
<!-- Image Loader&#45;&gt;Relative Pose Priors -->
<g id="edge26" class="edge">
<title>Image Loader&#45;&gt;Relative Pose Priors</title>
<path fill="none" stroke="#bfbfbf" d="M1150.4,-1136.43C1115.5,-1126.54 1070.67,-1113.83 1033.38,-1103.26"/>
<polygon fill="#bfbfbf" stroke="#bfbfbf" points="1034.61,-1099.97 1024.04,-1100.61 1032.7,-1106.71 1034.61,-1099.97"/>
</g>
<!-- Image Shapes -->
<g id="node24" class="node">
<title>Image Shapes</title>
<path fill="gainsboro" stroke="black" d="M851.25,-1099.75C851.25,-1099.75 758.75,-1099.75 758.75,-1099.75 752.75,-1099.75 746.75,-1093.75 746.75,-1087.75 746.75,-1087.75 746.75,-1075.75 746.75,-1075.75 746.75,-1069.75 752.75,-1063.75 758.75,-1063.75 758.75,-1063.75 851.25,-1063.75 851.25,-1063.75 857.25,-1063.75 863.25,-1069.75 863.25,-1075.75 863.25,-1075.75 863.25,-1087.75 863.25,-1087.75 863.25,-1093.75 857.25,-1099.75 851.25,-1099.75"/>
<text xml:space="preserve" text-anchor="middle" x="805" y="-1077.08" font-family="Times,serif" font-size="14.00">Image Shapes</text>
</g>
<!-- Image Loader&#45;&gt;Image Shapes -->
<g id="edge25" class="edge">
<title>Image Loader&#45;&gt;Image Shapes</title>
<path fill="none" stroke="#bfbfbf" d="M1150.64,-1145.34C1085.88,-1136.61 977.17,-1120.86 874.58,-1100.18"/>
<polygon fill="#bfbfbf" stroke="#bfbfbf" points="875.37,-1096.77 864.88,-1098.21 873.98,-1103.63 875.37,-1096.77"/>
</g>
<!-- Image Retriever -->
<g id="node26" class="node">
<title>Image Retriever</title>
<path fill="lightskyblue" stroke="black" d="M1179.12,-1099.75C1179.12,-1099.75 1070.88,-1099.75 1070.88,-1099.75 1064.88,-1099.75 1058.88,-1093.75 1058.88,-1087.75 1058.88,-1087.75 1058.88,-1075.75 1058.88,-1075.75 1058.88,-1069.75 1064.88,-1063.75 1070.88,-1063.75 1070.88,-1063.75 1179.12,-1063.75 1179.12,-1063.75 1185.12,-1063.75 1191.12,-1069.75 1191.12,-1075.75 1191.12,-1075.75 1191.12,-1087.75 1191.12,-1087.75 1191.12,-1093.75 1185.12,-1099.75 1179.12,-1099.75"/>
<text xml:space="preserve" text-anchor="middle" x="1125" y="-1077.08" font-family="Times,serif" font-size="14.00">Image Retriever</text>
</g>
<!-- Image Loader&#45;&gt;Image Retriever -->
<g id="edge30" class="edge">
<title>Image Loader&#45;&gt;Image Retriever</title>
<path fill="none" stroke="#bfbfbf" d="M1187.48,-1135.45C1177.41,-1126.95 1165.09,-1116.56 1154.07,-1107.26"/>
<polygon fill="#bfbfbf" stroke="#bfbfbf" points="1156.63,-1104.84 1146.73,-1101.07 1152.11,-1110.2 1156.63,-1104.84"/>
</g>
<!-- Source Directory -->
<g id="node25" class="node">
<title>Source Directory</title>
<ellipse fill="none" stroke="black" cx="1208" cy="-1231" rx="96.45" ry="18"/>
<text xml:space="preserve" text-anchor="middle" x="1208" y="-1226.33" font-family="Times,serif" font-size="14.00">Source Directory</text>
</g>
<!-- Source Directory&#45;&gt;Image Loader -->
<g id="edge28" class="edge">
<title>Source Directory&#45;&gt;Image Loader</title>
<path fill="none" stroke="#bfbfbf" d="M1208,-1212.55C1208,-1203.9 1208,-1193.25 1208,-1183.44"/>
<polygon fill="#bfbfbf" stroke="#bfbfbf" points="1211.5,-1183.62 1208,-1173.62 1204.5,-1183.62 1211.5,-1183.62"/>
</g>
<!-- Image Retriever&#45;&gt;Visibility Graph -->
<g id="edge29" class="edge">
<title>Image Retriever&#45;&gt;Visibility Graph</title>
<path fill="none" stroke="#bfbfbf" d="M1074.77,-1063.3C1066.53,-1060.65 1058.06,-1058.03 1050,-1055.75 1011.64,-1044.89 968.45,-1034.59 932.76,-1026.6"/>
<polygon fill="#bfbfbf" stroke="#bfbfbf" points="933.94,-1023.28 923.42,-1024.53 932.42,-1030.11 933.94,-1023.28"/>
</g>
<!-- Dense Colored 3D Point Cloud -->
<g id="node28" class="node">
<title>Dense Colored 3D Point Cloud</title>
<path fill="gainsboro" stroke="black" d="M1422,-52C1422,-52 1214,-52 1214,-52 1208,-52 1202,-46 1202,-40 1202,-40 1202,-28 1202,-28 1202,-22 1208,-16 1214,-16 1214,-16 1422,-16 1422,-16 1428,-16 1434,-22 1434,-28 1434,-28 1434,-40 1434,-40 1434,-46 1428,-52 1422,-52"/>
<text xml:space="preserve" text-anchor="middle" x="1318" y="-29.32" font-family="Times,serif" font-size="14.00">Dense Colored 3D Point Cloud</text>
</g>
<!-- Multi&#45;view Stereo&#45;&gt;Dense Colored 3D Point Cloud -->
<g id="edge31" class="edge">
<title>Multi&#45;view Stereo&#45;&gt;Dense Colored 3D Point Cloud</title>
<path fill="none" stroke="#bfbfbf" d="M1318,-87.7C1318,-80.41 1318,-71.73 1318,-63.54"/>
<polygon fill="#bfbfbf" stroke="#bfbfbf" points="1321.5,-63.62 1318,-53.62 1314.5,-63.62 1321.5,-63.62"/>
</g>
<!-- Bundle Adjustment Result -->
<g id="node30" class="node">
<title>Bundle Adjustment Result</title>
<path fill="gainsboro" stroke="black" d="M710.75,-1099.75C710.75,-1099.75 531.25,-1099.75 531.25,-1099.75 525.25,-1099.75 519.25,-1093.75 519.25,-1087.75 519.25,-1087.75 519.25,-1075.75 519.25,-1075.75 519.25,-1069.75 525.25,-1063.75 531.25,-1063.75 531.25,-1063.75 710.75,-1063.75 710.75,-1063.75 716.75,-1063.75 722.75,-1069.75 722.75,-1075.75 722.75,-1075.75 722.75,-1087.75 722.75,-1087.75 722.75,-1093.75 716.75,-1099.75 710.75,-1099.75"/>
<text xml:space="preserve" text-anchor="middle" x="621" y="-1077.08" font-family="Times,serif" font-size="14.00">Bundle Adjustment Result</text>
</g>
<!-- Multiview Optimizer&#45;&gt;Bundle Adjustment Result -->
<g id="edge35" class="edge">
<title>Multiview Optimizer&#45;&gt;Bundle Adjustment Result</title>
<path fill="none" stroke="#bfbfbf" d="M557.01,-1135.45C567.33,-1126.95 579.94,-1116.56 591.23,-1107.26"/>
<polygon fill="#bfbfbf" stroke="#bfbfbf" points="593.27,-1110.12 598.77,-1101.06 588.82,-1104.71 593.27,-1110.12"/>
</g>
<!-- Rotation Averaging&#45;&gt;Global Rotations -->
<g id="edge37" class="edge">
<title>Rotation Averaging&#45;&gt;Global Rotations</title>
<path fill="none" stroke="#bfbfbf" d="M1250.05,-676.77C1220.43,-667.17 1183.5,-655.2 1152.38,-645.11"/>
<polygon fill="#bfbfbf" stroke="#bfbfbf" points="1153.67,-641.85 1143.07,-642.1 1151.51,-648.51 1153.67,-641.85"/>
</g>
<!-- View&#45;Graph Relative Rotations -->
<g id="node32" class="node">
<title>View&#45;Graph Relative Rotations</title>
<path fill="gainsboro" stroke="black" d="M1368.5,-785.25C1368.5,-785.25 1157.5,-785.25 1157.5,-785.25 1151.5,-785.25 1145.5,-779.25 1145.5,-773.25 1145.5,-773.25 1145.5,-761.25 1145.5,-761.25 1145.5,-755.25 1151.5,-749.25 1157.5,-749.25 1157.5,-749.25 1368.5,-749.25 1368.5,-749.25 1374.5,-749.25 1380.5,-755.25 1380.5,-761.25 1380.5,-761.25 1380.5,-773.25 1380.5,-773.25 1380.5,-779.25 1374.5,-785.25 1368.5,-785.25"/>
<text xml:space="preserve" text-anchor="middle" x="1263" y="-762.58" font-family="Times,serif" font-size="14.00">View&#45;Graph Relative Rotations</text>
</g>
<!-- View&#45;Graph Relative Rotations&#45;&gt;Rotation Averaging -->
<g id="edge38" class="edge">
<title>View&#45;Graph Relative Rotations&#45;&gt;Rotation Averaging</title>
<path fill="none" stroke="#bfbfbf" d="M1273.13,-748.95C1277.7,-741.15 1283.2,-731.76 1288.29,-723.08"/>
<polygon fill="#bfbfbf" stroke="#bfbfbf" points="1291.18,-725.06 1293.22,-714.66 1285.14,-721.52 1291.18,-725.06"/>
</g>
<!-- Translation Averaging&#45;&gt;Global Translations -->
<g id="edge40" class="edge">
<title>Translation Averaging&#45;&gt;Global Translations</title>
<path fill="none" stroke="#bfbfbf" d="M1042.47,-532.95C1043.53,-525.57 1044.78,-516.77 1045.96,-508.5"/>
<polygon fill="#bfbfbf" stroke="#bfbfbf" points="1049.39,-509.25 1047.34,-498.85 1042.46,-508.26 1049.39,-509.25"/>
</g>
<!-- View&#45;Graph Relative Translations -->
<g id="node34" class="node">
<title>View&#45;Graph Relative Translations</title>
<path fill="gainsboro" stroke="black" d="M1196.62,-713.25C1196.62,-713.25 965.38,-713.25 965.38,-713.25 959.38,-713.25 953.38,-707.25 953.38,-701.25 953.38,-701.25 953.38,-689.25 953.38,-689.25 953.38,-683.25 959.38,-677.25 965.38,-677.25 965.38,-677.25 1196.62,-677.25 1196.62,-677.25 1202.62,-677.25 1208.62,-683.25 1208.62,-689.25 1208.62,-689.25 1208.62,-701.25 1208.62,-701.25 1208.62,-707.25 1202.62,-713.25 1196.62,-713.25"/>
<text xml:space="preserve" text-anchor="middle" x="1081" y="-690.58" font-family="Times,serif" font-size="14.00">View&#45;Graph Relative Translations</text>
</g>
<!-- View&#45;Graph Relative Translations&#45;&gt;Translation Averaging -->
<g id="edge41" class="edge">
<title>View&#45;Graph Relative Translations&#45;&gt;Translation Averaging</title>
<path fill="none" stroke="#bfbfbf" d="M1046.8,-676.98C1033.37,-668.25 1019.41,-656.29 1012,-641.25 1002.2,-621.36 1010.89,-597.29 1021.09,-579.2"/>
<polygon fill="#bfbfbf" stroke="#bfbfbf" points="1023.96,-581.22 1026.19,-570.87 1017.99,-577.57 1023.96,-581.22"/>
</g>
<!-- Optimized Relative Rotation -->
<g id="node36" class="node">
<title>Optimized Relative Rotation</title>
<path fill="gainsboro" stroke="black" d="M1850.88,-942.5C1850.88,-942.5 1657.12,-942.5 1657.12,-942.5 1651.12,-942.5 1645.12,-936.5 1645.12,-930.5 1645.12,-930.5 1645.12,-918.5 1645.12,-918.5 1645.12,-912.5 1651.12,-906.5 1657.12,-906.5 1657.12,-906.5 1850.88,-906.5 1850.88,-906.5 1856.88,-906.5 1862.88,-912.5 1862.88,-918.5 1862.88,-918.5 1862.88,-930.5 1862.88,-930.5 1862.88,-936.5 1856.88,-942.5 1850.88,-942.5"/>
<text xml:space="preserve" text-anchor="middle" x="1754" y="-919.83" font-family="Times,serif" font-size="14.00">Optimized Relative Rotation</text>
</g>
<!-- Two&#45;View Bundle Adjustment&#45;&gt;Optimized Relative Rotation -->
<g id="edge45" class="edge">
<title>Two&#45;View Bundle Adjustment&#45;&gt;Optimized Relative Rotation</title>
<path fill="none" stroke="#bfbfbf" d="M1914.55,-991.37C1900.67,-986.49 1885.71,-981.07 1872,-975.75 1849.27,-966.93 1824.4,-956.46 1803.37,-947.37"/>
<polygon fill="#bfbfbf" stroke="#bfbfbf" points="1805.03,-944.27 1794.46,-943.5 1802.24,-950.69 1805.03,-944.27"/>
</g>
<!-- Optimized Relative Translation -->
<g id="node37" class="node">
<title>Optimized Relative Translation</title>
<path fill="gainsboro" stroke="black" d="M2107,-942.5C2107,-942.5 1893,-942.5 1893,-942.5 1887,-942.5 1881,-936.5 1881,-930.5 1881,-930.5 1881,-918.5 1881,-918.5 1881,-912.5 1887,-906.5 1893,-906.5 1893,-906.5 2107,-906.5 2107,-906.5 2113,-906.5 2119,-912.5 2119,-918.5 2119,-918.5 2119,-930.5 2119,-930.5 2119,-936.5 2113,-942.5 2107,-942.5"/>
<text xml:space="preserve" text-anchor="middle" x="2000" y="-919.83" font-family="Times,serif" font-size="14.00">Optimized Relative Translation</text>
</g>
<!-- Two&#45;View Bundle Adjustment&#45;&gt;Optimized Relative Translation -->
<g id="edge46" class="edge">
<title>Two&#45;View Bundle Adjustment&#45;&gt;Optimized Relative Translation</title>
<path fill="none" stroke="#bfbfbf" d="M1973.04,-991.5C1977.56,-980.45 1983.52,-965.86 1988.68,-953.21"/>
<polygon fill="#bfbfbf" stroke="#bfbfbf" points="1991.85,-954.71 1992.39,-944.13 1985.37,-952.06 1991.85,-954.71"/>
</g>
<!-- Inlier Correspondences -->
<g id="node38" class="node">
<title>Inlier Correspondences</title>
<path fill="gainsboro" stroke="black" d="M2307.25,-942.5C2307.25,-942.5 2148.75,-942.5 2148.75,-942.5 2142.75,-942.5 2136.75,-936.5 2136.75,-930.5 2136.75,-930.5 2136.75,-918.5 2136.75,-918.5 2136.75,-912.5 2142.75,-906.5 2148.75,-906.5 2148.75,-906.5 2307.25,-906.5 2307.25,-906.5 2313.25,-906.5 2319.25,-912.5 2319.25,-918.5 2319.25,-918.5 2319.25,-930.5 2319.25,-930.5 2319.25,-936.5 2313.25,-942.5 2307.25,-942.5"/>
<text xml:space="preserve" text-anchor="middle" x="2228" y="-919.83" font-family="Times,serif" font-size="14.00">Inlier Correspondences</text>
</g>
<!-- Two&#45;View Bundle Adjustment&#45;&gt;Inlier Correspondences -->
<g id="edge47" class="edge">
<title>Two&#45;View Bundle Adjustment&#45;&gt;Inlier Correspondences</title>
<path fill="none" stroke="#bfbfbf" d="M2072.1,-991.34C2090.95,-987.06 2110.23,-981.9 2128,-975.75 2148.82,-968.54 2170.81,-957.86 2188.85,-948.2"/>
<polygon fill="#bfbfbf" stroke="#bfbfbf" points="2190.28,-951.41 2197.38,-943.54 2186.93,-945.26 2190.28,-951.41"/>
</g>
<!-- Optimized Relative Rotation&#45;&gt;View&#45;Graph Estimator -->
<g id="edge66" class="edge">
<title>Optimized Relative Rotation&#45;&gt;View&#45;Graph Estimator</title>
<path fill="none" stroke="#bfbfbf" d="M1661.55,-906.05C1588.52,-892.26 1486.81,-873.06 1412.1,-858.96"/>
<polygon fill="#bfbfbf" stroke="#bfbfbf" points="1412.78,-855.52 1402.31,-857.11 1411.48,-862.4 1412.78,-855.52"/>
</g>
<!-- Optimized Relative Translation&#45;&gt;View&#45;Graph Estimator -->
<g id="edge67" class="edge">
<title>Optimized Relative Translation&#45;&gt;View&#45;Graph Estimator</title>
<path fill="none" stroke="#bfbfbf" d="M1916.18,-906.02C1901.5,-903.28 1886.33,-900.64 1872,-898.5 1711.76,-874.55 1524.21,-857.16 1412.2,-847.9"/>
<polygon fill="#bfbfbf" stroke="#bfbfbf" points="1412.69,-844.43 1402.44,-847.1 1412.12,-851.41 1412.69,-844.43"/>
</g>
<!-- Inlier Correspondences&#45;&gt;View&#45;Graph Estimator -->
<g id="edge69" class="edge">
<title>Inlier Correspondences&#45;&gt;View&#45;Graph Estimator</title>
<path fill="none" stroke="#bfbfbf" d="M2165.13,-906.02C2152.89,-903.12 2140.11,-900.43 2128,-898.5 1871.93,-857.66 1566,-845.44 1411.99,-841.8"/>
<polygon fill="#bfbfbf" stroke="#bfbfbf" points="1412.3,-838.3 1402.23,-841.57 1412.14,-845.3 1412.3,-838.3"/>
</g>
<!-- Relative Rotation -->
<g id="node39" class="node">
<title>Relative Rotation</title>
<path fill="gainsboro" stroke="black" d="M1821.88,-1099.75C1821.88,-1099.75 1706.12,-1099.75 1706.12,-1099.75 1700.12,-1099.75 1694.12,-1093.75 1694.12,-1087.75 1694.12,-1087.75 1694.12,-1075.75 1694.12,-1075.75 1694.12,-1069.75 1700.12,-1063.75 1706.12,-1063.75 1706.12,-1063.75 1821.88,-1063.75 1821.88,-1063.75 1827.88,-1063.75 1833.88,-1069.75 1833.88,-1075.75 1833.88,-1075.75 1833.88,-1087.75 1833.88,-1087.75 1833.88,-1093.75 1827.88,-1099.75 1821.88,-1099.75"/>
<text xml:space="preserve" text-anchor="middle" x="1764" y="-1077.08" font-family="Times,serif" font-size="14.00">Relative Rotation</text>
</g>
<!-- Relative Rotation&#45;&gt;Two&#45;View Bundle Adjustment -->
<g id="edge48" class="edge">
<title>Relative Rotation&#45;&gt;Two&#45;View Bundle Adjustment</title>
<path fill="none" stroke="#bfbfbf" d="M1814.45,-1063.27C1841.91,-1053.75 1876.09,-1041.91 1905.03,-1031.88"/>
<polygon fill="#bfbfbf" stroke="#bfbfbf" points="1906.11,-1035.21 1914.41,-1028.63 1903.82,-1028.59 1906.11,-1035.21"/>
</g>
<!-- Relative Translation -->
<g id="node40" class="node">
<title>Relative Translation</title>
<path fill="gainsboro" stroke="black" d="M2000,-1099.75C2000,-1099.75 1864,-1099.75 1864,-1099.75 1858,-1099.75 1852,-1093.75 1852,-1087.75 1852,-1087.75 1852,-1075.75 1852,-1075.75 1852,-1069.75 1858,-1063.75 1864,-1063.75 1864,-1063.75 2000,-1063.75 2000,-1063.75 2006,-1063.75 2012,-1069.75 2012,-1075.75 2012,-1075.75 2012,-1087.75 2012,-1087.75 2012,-1093.75 2006,-1099.75 2000,-1099.75"/>
<text xml:space="preserve" text-anchor="middle" x="1932" y="-1077.08" font-family="Times,serif" font-size="14.00">Relative Translation</text>
</g>
<!-- Relative Translation&#45;&gt;Two&#45;View Bundle Adjustment -->
<g id="edge49" class="edge">
<title>Relative Translation&#45;&gt;Two&#45;View Bundle Adjustment</title>
<path fill="none" stroke="#bfbfbf" d="M1940.4,-1063.45C1944.11,-1055.82 1948.56,-1046.67 1952.69,-1038.15"/>
<polygon fill="#bfbfbf" stroke="#bfbfbf" points="1955.81,-1039.74 1957.03,-1029.22 1949.51,-1036.68 1955.81,-1039.74"/>
</g>
<!-- Triangulated Points -->
<g id="node41" class="node">
<title>Triangulated Points</title>
<ellipse fill="none" stroke="black" cx="2445" cy="-1081.75" rx="109.61" ry="18"/>
<text xml:space="preserve" text-anchor="middle" x="2445" y="-1077.08" font-family="Times,serif" font-size="14.00">Triangulated Points</text>
</g>
<!-- Triangulated Points&#45;&gt;Two&#45;View Bundle Adjustment -->
<g id="edge50" class="edge">
<title>Triangulated Points&#45;&gt;Two&#45;View Bundle Adjustment</title>
<path fill="none" stroke="#bfbfbf" d="M2384.27,-1066.33C2367.11,-1062.56 2348.38,-1058.72 2331,-1055.75 2251.25,-1042.12 2161.02,-1030.96 2090.22,-1023.16"/>
<polygon fill="#bfbfbf" stroke="#bfbfbf" points="2090.86,-1019.71 2080.53,-1022.1 2090.09,-1026.67 2090.86,-1019.71"/>
</g>
<!-- Keypoints -->
<g id="node42" class="node">
<title>Keypoints</title>
<ellipse fill="none" stroke="black" cx="2258" cy="-1231" rx="60.68" ry="18"/>
<text xml:space="preserve" text-anchor="middle" x="2258" y="-1226.33" font-family="Times,serif" font-size="14.00">Keypoints</text>
</g>
<!-- Keypoints&#45;&gt;Two&#45;View Bundle Adjustment -->
<g id="edge53" class="edge">
<title>Keypoints&#45;&gt;Two&#45;View Bundle Adjustment</title>
<path fill="none" stroke="#bfbfbf" d="M2262.17,-1212.64C2269.41,-1177.79 2279.9,-1098.95 2239,-1055.75 2218.24,-1033.83 2152.05,-1022.58 2090.04,-1016.82"/>
<polygon fill="#bfbfbf" stroke="#bfbfbf" points="2090.71,-1013.36 2080.44,-1015.97 2090.09,-1020.33 2090.71,-1013.36"/>
</g>
<!-- Keypoints&#45;&gt;Verifier -->
<g id="edge60" class="edge">
<title>Keypoints&#45;&gt;Verifier</title>
<path fill="none" stroke="#bfbfbf" d="M2211.29,-1219.22C2148.97,-1204.83 2039.33,-1179.53 1977.59,-1165.27"/>
<polygon fill="#bfbfbf" stroke="#bfbfbf" points="1978.64,-1161.92 1968.11,-1163.09 1977.07,-1168.75 1978.64,-1161.92"/>
</g>
<!-- Keypoints&#45;&gt;View&#45;Graph Estimator -->
<g id="edge70" class="edge">
<title>Keypoints&#45;&gt;View&#45;Graph Estimator</title>
<path fill="none" stroke="#bfbfbf" d="M2318.37,-1228.79C2412.36,-1223.35 2583,-1197.66 2583,-1082.75 2583,-1082.75 2583,-1082.75 2583,-1008.75 2583,-886.5 2449.9,-926.94 2331,-898.5 2158.6,-857.26 1632.93,-844.9 1412.22,-841.47"/>
<polygon fill="#bfbfbf" stroke="#bfbfbf" points="1412.56,-837.97 1402.5,-841.32 1412.45,-844.97 1412.56,-837.97"/>
</g>
<!-- Verified Correspondences -->
<g id="node43" class="node">
<title>Verified Correspondences</title>
<path fill="gainsboro" stroke="black" d="M2217.5,-1099.75C2217.5,-1099.75 2042.5,-1099.75 2042.5,-1099.75 2036.5,-1099.75 2030.5,-1093.75 2030.5,-1087.75 2030.5,-1087.75 2030.5,-1075.75 2030.5,-1075.75 2030.5,-1069.75 2036.5,-1063.75 2042.5,-1063.75 2042.5,-1063.75 2217.5,-1063.75 2217.5,-1063.75 2223.5,-1063.75 2229.5,-1069.75 2229.5,-1075.75 2229.5,-1075.75 2229.5,-1087.75 2229.5,-1087.75 2229.5,-1093.75 2223.5,-1099.75 2217.5,-1099.75"/>
<text xml:space="preserve" text-anchor="middle" x="2130" y="-1077.08" font-family="Times,serif" font-size="14.00">Verified Correspondences</text>
</g>
<!-- Verified Correspondences&#45;&gt;Two&#45;View Bundle Adjustment -->
<g id="edge54" class="edge">
<title>Verified Correspondences&#45;&gt;Two&#45;View Bundle Adjustment</title>
<path fill="none" stroke="#bfbfbf" d="M2089.04,-1063.27C2067.24,-1053.96 2040.22,-1042.43 2017.06,-1032.54"/>
<polygon fill="#bfbfbf" stroke="#bfbfbf" points="2018.69,-1029.43 2008.11,-1028.73 2015.94,-1035.87 2018.69,-1029.43"/>
</g>
<!-- VGGT Reconstruction -->
<g id="node45" class="node">
<title>VGGT Reconstruction</title>
<path fill="gainsboro" stroke="black" d="M173.88,-1099.75C173.88,-1099.75 28.12,-1099.75 28.12,-1099.75 22.12,-1099.75 16.12,-1093.75 16.12,-1087.75 16.12,-1087.75 16.12,-1075.75 16.12,-1075.75 16.12,-1069.75 22.12,-1063.75 28.12,-1063.75 28.12,-1063.75 173.88,-1063.75 173.88,-1063.75 179.88,-1063.75 185.88,-1069.75 185.88,-1075.75 185.88,-1075.75 185.88,-1087.75 185.88,-1087.75 185.88,-1093.75 179.88,-1099.75 173.88,-1099.75"/>
<text xml:space="preserve" text-anchor="middle" x="101" y="-1077.08" font-family="Times,serif" font-size="14.00">VGGT Reconstruction</text>
</g>
<!-- VGGT&#45;&gt;VGGT Reconstruction -->
<g id="edge55" class="edge">
<title>VGGT&#45;&gt;VGGT Reconstruction</title>
<path fill="none" stroke="#bfbfbf" d="M147.67,-1135.45C140.47,-1127.31 131.72,-1117.44 123.76,-1108.45"/>
<polygon fill="#bfbfbf" stroke="#bfbfbf" points="126.4,-1106.15 117.15,-1100.99 121.16,-1110.79 126.4,-1106.15"/>
</g>
<!-- Verifier&#45;&gt;Relative Rotation -->
<g id="edge57" class="edge">
<title>Verifier&#45;&gt;Relative Rotation</title>
<path fill="none" stroke="#bfbfbf" d="M1897.6,-1138.42C1874.23,-1128.68 1842.87,-1115.61 1816.42,-1104.59"/>
<polygon fill="#bfbfbf" stroke="#bfbfbf" points="1817.77,-1101.36 1807.19,-1100.75 1815.07,-1107.82 1817.77,-1101.36"/>
</g>
<!-- Verifier&#45;&gt;Relative Translation -->
<g id="edge58" class="edge">
<title>Verifier&#45;&gt;Relative Translation</title>
<path fill="none" stroke="#bfbfbf" d="M1932,-1135.45C1932,-1128.16 1932,-1119.48 1932,-1111.29"/>
<polygon fill="#bfbfbf" stroke="#bfbfbf" points="1935.5,-1111.37 1932,-1101.37 1928.5,-1111.37 1935.5,-1111.37"/>
</g>
<!-- Verifier&#45;&gt;Verified Correspondences -->
<g id="edge59" class="edge">
<title>Verifier&#45;&gt;Verified Correspondences</title>
<path fill="none" stroke="#bfbfbf" d="M1966.49,-1140.56C1994.98,-1130.48 2036.1,-1115.95 2069.98,-1103.97"/>
<polygon fill="#bfbfbf" stroke="#bfbfbf" points="2071.01,-1107.32 2079.27,-1100.68 2068.68,-1100.72 2071.01,-1107.32"/>
</g>
<!-- Putative Correspondences -->
<g id="node47" class="node">
<title>Putative Correspondences</title>
<ellipse fill="none" stroke="black" cx="1932" cy="-1231" rx="143.28" ry="18"/>
<text xml:space="preserve" text-anchor="middle" x="1932" y="-1226.33" font-family="Times,serif" font-size="14.00">Putative Correspondences</text>
</g>
<!-- Putative Correspondences&#45;&gt;Verifier -->
<g id="edge61" class="edge">
<title>Putative Correspondences&#45;&gt;Verifier</title>
<path fill="none" stroke="#bfbfbf" d="M1932,-1212.55C1932,-1203.9 1932,-1193.25 1932,-1183.44"/>
<polygon fill="#bfbfbf" stroke="#bfbfbf" points="1935.5,-1183.62 1932,-1173.62 1928.5,-1183.62 1935.5,-1183.62"/>
</g>
<!-- View&#45;Graph Estimator&#45;&gt;View&#45;Graph Correspondences -->
<g id="edge65" class="edge">
<title>View&#45;Graph Estimator&#45;&gt;View&#45;Graph Correspondences</title>
<path fill="none" stroke="#bfbfbf" d="M1352.68,-820.91C1367.14,-812.4 1381.92,-800.62 1390,-785.25 1412.33,-742.76 1415,-718.23 1390,-677.25 1382.08,-664.26 1369.84,-654.33 1356.54,-646.77"/>
<polygon fill="#bfbfbf" stroke="#bfbfbf" points="1358.54,-643.86 1348.05,-642.37 1355.32,-650.08 1358.54,-643.86"/>
</g>
<!-- View&#45;Graph Estimator&#45;&gt;View&#45;Graph Relative Rotations -->
<g id="edge63" class="edge">
<title>View&#45;Graph Estimator&#45;&gt;View&#45;Graph Relative Rotations</title>
<path fill="none" stroke="#bfbfbf" d="M1300.64,-820.95C1294.95,-812.98 1288.07,-803.35 1281.76,-794.51"/>
<polygon fill="#bfbfbf" stroke="#bfbfbf" points="1284.76,-792.69 1276.1,-786.59 1279.06,-796.76 1284.76,-792.69"/>
</g>
<!-- View&#45;Graph Estimator&#45;&gt;View&#45;Graph Relative Translations -->
<g id="edge64" class="edge">
<title>View&#45;Graph Estimator&#45;&gt;View&#45;Graph Relative Translations</title>
<path fill="none" stroke="#bfbfbf" d="M1225.32,-824.85C1195.12,-817.02 1162.51,-804.68 1137,-785.25 1116.29,-769.48 1101.28,-743.66 1092.04,-723.89"/>
<polygon fill="#bfbfbf" stroke="#bfbfbf" points="1095.36,-722.74 1088.11,-715.01 1088.96,-725.57 1095.36,-722.74"/>
</g>
</g>
</svg>
